0
SECTION
2
HEADER
0
ENDSEC
0
SECTION
2
TABLES
0
TABLE
2
LTYPE
0
LTYPE
2
Continuous
70
0
3
Solid line
72
65
73
0
40
0.000000
0
ENDTAB
0
TABLE
2
LAYER
0
LAYER
2
0
70
0
62
7
6
Continuous
0
LAYER
2
一般房屋
70
0
62
4
6
Continuous
0
ENDTAB
0
TABLE
2
STYLE
0
ENDTAB
0
TABLE
2
DIMSTYLE
0
ENDTAB
0
ENDSEC
0
SECTION
2
BLOCKS
0
ENDSEC
0
SECTION
2
ENTITIES
0
POLYLINE
8
一般房屋
6
Continuous
70
137
66
 1
10
0.0
20
0.0
30
0.0
0
VERTEX
8
一般房屋
70
32
10
457370.992941
20
2531838.854622
30
14.515026
0
VERTEX
8
一般房屋
70
32
10
457365.236802
20
2531838.898105
30
14.515026
0
VERTEX
8
一般房屋
70
32
10
457365.131806
20
2531842.342481
30
14.515026
0
VERTEX
8
一般房屋
70
32
10
457359.983571
20
2531842.485665
30
14.515026
0
VERTEX
8
一般房屋
70
32
10
457360.145187
20
2531846.999493
30
14.515026
0
VERTEX
8
一般房屋
70
32
10
457365.434960
20
2531847.074283
30
14.515026
0
VERTEX
8
一般房屋
70
32
10
457365.419468
20
2531847.763063
30
14.515026
0
VERTEX
8
一般房屋
70
32
10
457371.173202
20
2531847.582066
30
14.515026
0
SEQEND
8
一般房屋
0
POLYLINE
8
一般房屋
6
Continuous
70
137
66
 1
10
0.0
20
0.0
30
0.0
0
VERTEX
8
一般房屋
70
32
10
457371.416844
20
2531838.460200
30
13.762141
0
VERTEX
8
一般房屋
70
32
10
457364.774331
20
2531838.546387
30
13.762141
0
VERTEX
8
一般房屋
70
32
10
457364.448286
20
2531841.969925
30
13.762141
0
VERTEX
8
一般房屋
70
32
10
457359.626372
20
2531842.107579
30
13.762141
0
VERTEX
8
一般房屋
70
32
10
457359.861084
20
2531847.643878
30
13.762141
0
VERTEX
8
一般房屋
70
32
10
457364.904445
20
2531847.557645
30
13.762141
0
VERTEX
8
一般房屋
70
32
10
457364.946471
20
2531848.383852
30
13.762141
0
VERTEX
8
一般房屋
70
32
10
457371.943420
20
2531848.071279
30
13.762141
0
SEQEND
8
一般房屋
0
POLYLINE
8
一般房屋
6
Continuous
70
137
66
 1
10
0.0
20
0.0
30
0.0
0
VERTEX
8
一般房屋
70
32
10
457376.737742
20
2531853.024662
30
13.689990
0
VERTEX
8
一般房屋
70
32
10
457376.825687
20
2531859.363654
30
13.689990
0
VERTEX
8
一般房屋
70
32
10
457372.160842
20
2531859.328388
30
13.689990
0
VERTEX
8
一般房屋
70
32
10
457372.210714
20
2531852.987128
30
13.689990
0
SEQEND
8
一般房屋
0
POLYLINE
8
一般房屋
6
Continuous
70
137
66
 1
10
0.0
20
0.0
30
0.0
0
VERTEX
8
一般房屋
70
32
10
457371.932200
20
2531852.735667
30
13.282177
0
VERTEX
8
一般房屋
70
32
10
457377.172911
20
2531852.715090
30
13.282177
0
VERTEX
8
一般房屋
70
32
10
457377.164086
20
2531860.092935
30
13.282177
0
VERTEX
8
一般房屋
70
32
10
457371.961698
20
2531859.676065
30
13.282177
0
SEQEND
8
一般房屋
0
POLYLINE
8
一般房屋
6
Continuous
70
137
66
 1
10
0.0
20
0.0
30
0.0
0
VERTEX
8
一般房屋
70
32
10
457381.558197
20
2531850.704790
30
11.164689
0
VERTEX
8
一般房屋
70
32
10
457382.013455
20
2531851.042596
30
11.164689
0
VERTEX
8
一般房屋
70
32
10
457382.011064
20
2531862.757999
30
11.164689
0
VERTEX
8
一般房屋
70
32
10
457381.604870
20
2531863.248746
30
11.164689
0
VERTEX
8
一般房屋
70
32
10
457372.511178
20
2531863.058241
30
11.164689
0
VERTEX
8
一般房屋
70
32
10
457372.088081
20
2531862.581651
30
11.164689
0
VERTEX
8
一般房屋
70
32
10
457372.232909
20
2531851.106057
30
11.164689
0
VERTEX
8
一般房屋
70
32
10
457372.605736
20
2531850.684994
30
11.164689
0
SEQEND
8
一般房屋
0
POLYLINE
8
一般房屋
6
Continuous
70
137
66
 1
10
0.0
20
0.0
30
0.0
0
VERTEX
8
一般房屋
70
32
10
457372.511026
20
2531850.232107
30
10.317694
0
VERTEX
8
一般房屋
70
32
10
457381.923529
20
2531850.347966
30
10.317694
0
VERTEX
8
一般房屋
70
32
10
457382.419864
20
2531851.031319
30
10.317694
0
VERTEX
8
一般房屋
70
32
10
457382.485436
20
2531862.687634
30
10.317694
0
VERTEX
8
一般房屋
70
32
10
457381.913173
20
2531863.596779
30
10.317694
0
VERTEX
8
一般房屋
70
32
10
457372.575900
20
2531863.825180
30
10.317694
0
VERTEX
8
一般房屋
70
32
10
457371.724659
20
2531862.629021
30
10.317694
0
VERTEX
8
一般房屋
70
32
10
457371.658480
20
2531850.938493
30
10.317694
0
SEQEND
8
一般房屋
0
ENDSEC
0
EOF
